<?xml version="1.0" encoding="UTF-8"?>
<svg id="Layer_2" data-name="Layer 2" xmlns="http://www.w3.org/2000/svg" viewBox="0 0 200 75.05">
  <defs>
    <style>
      .cls-1 {
        fill: #fff;
      }
    </style>
  </defs>
  <g id="Layer_1" data-name="Layer 1">
    <path class="cls-1" d="M73.43,43.47c7.55,14.17-2.71,31.25-18.85,31.36l-32.93.22c-16.13.11-26.62-16.83-19.26-31.1L18.65,12.44c7.93-15.37,29.97-15.51,38.11-.25l16.67,31.28ZM189.79,28.14c-7.72-14.47-11.58-21.71-16.24-24.72-2.63-1.7-5.54-2.77-8.52-3.22-8.36-1.25-16.43,3.48-19.78,11.24-.15.35-.31.71-.48,1.07-.66,1.39-2.63,1.42-3.34.05-1.96-3.76-4.54-8.34-7.59-9.88-4.66-2.35-11.89-2.3-26.36-2.2-14.47.1-21.7.14-26.32,2.56-7.15,3.73-11.6,11.12-11.51,19.14.05,5.19,3.44,11.54,10.21,24.23,7.72,14.47,11.58,21.71,16.24,24.72,7.22,4.67,16.54,4.6,23.7-.16,1.77-1.18,3.42-3.41,5.2-6.19.72-1.13,2.37-1.17,3.12-.06,1.97,2.89,4.58,5.57,7.68,7.14,4.66,2.35,11.89,2.3,26.36,2.2s21.7-.14,26.33-2.56c7.15-3.73,11.6-11.12,11.51-19.14-.05-5.19-3.44-11.54-10.21-24.23Z"/>
  </g>
</svg>