<?xml version="1.0" encoding="UTF-8"?>
<svg id="Layer_2" data-name="Layer 2" xmlns="http://www.w3.org/2000/svg" viewBox="0 0 200 111.52">
  <defs>
    <style>
      .cls-1 {
        fill: #e0513a;
      }
    </style>
  </defs>
  <g id="Layer_1" data-name="Layer 1">
    <g>
      <path class="cls-1" d="M73.5,42.88c7.46,14.22-2.92,31.23-19.05,31.23H21.52c-16.13,0-26.51-17.01-19.05-31.23L18.93,11.48c8.03-15.31,30.08-15.31,38.11,0l16.46,31.39ZM189.95,28.37c-7.62-14.52-11.43-21.78-16.08-24.83-2.62-1.72-5.52-2.81-8.49-3.27-8.35-1.31-16.45,3.37-19.85,11.11-.15.35-.32.71-.49,1.07-.67,1.38-2.64,1.4-3.34.03-1.94-3.77-4.49-8.37-7.52-9.93C129.53.16,122.3.16,107.83.16s-21.7,0-26.34,2.38c-7.17,3.68-11.67,11.04-11.64,19.06.02,5.19,3.36,11.56,10.05,24.3,7.62,14.52,11.43,21.79,16.08,24.83,7.19,4.71,16.51,4.71,23.7,0,1.78-1.17,3.44-3.38,5.24-6.16.73-1.12,2.38-1.15,3.12-.04,1.95,2.9,4.54,5.6,7.64,7.19,4.64,2.38,11.87,2.38,26.34,2.38s21.7,0,26.34-2.38c7.17-3.68,11.67-11.04,11.64-19.06-.02-5.19-3.36-11.56-10.05-24.3Z"/>
      <g>
        <path class="cls-1" d="M5.63,95.4h4.53l5.27,15.76h-3.15l-5.09-15.27h1.46l-5.13,15.27H.36l5.27-15.76ZM3.69,104.2h8.4v2.54H3.69v-2.54Z"/>
        <path class="cls-1" d="M16.15,95.17h3.04v15.99h-3.04v-15.99Z"/>
        <path class="cls-1" d="M23.15,110.77c-.92-.5-1.63-1.21-2.14-2.12-.51-.91-.77-1.96-.77-3.14s.24-2.17.72-3.07c.48-.91,1.15-1.62,2.02-2.13.86-.51,1.84-.77,2.92-.77s2.07.26,2.92.77c.85.51,1.51,1.22,1.99,2.14.48.92.72,1.96.72,3.13v.86h-8.15c0,.5.12.93.35,1.32.23.38.56.68.98.9.42.22.9.33,1.44.33.57,0,1.06-.12,1.46-.36.41-.24.69-.57.86-.99l3.06.22c-.17,1.11-.72,2-1.67,2.67-.95.67-2.12,1-3.54,1-1.2,0-2.26-.25-3.18-.75ZM28.08,103.11c-.21-.32-.5-.57-.88-.75-.38-.18-.81-.27-1.31-.27s-.93.09-1.32.27-.68.43-.89.75c-.21.32-.31.69-.31,1.11h5.02c0-.42-.11-.79-.32-1.11Z"/>
        <path class="cls-1" d="M31.53,99.9h3.65l8.2,11.26h-3.65l-8.2-11.26ZM39.72,99.9h3.65l-8.2,11.26h-3.65l8.2-11.26Z"/>
        <path class="cls-1" d="M45.45,111.08c-.59-.29-1.04-.7-1.37-1.22-.33-.52-.5-1.11-.5-1.77,0-1.02.4-1.83,1.21-2.43.8-.6,2.02-1,3.64-1.19.81-.1,1.4-.2,1.77-.29.37-.09.62-.21.74-.35.13-.14.18-.36.17-.64-.02-.36-.17-.63-.47-.82-.3-.19-.72-.28-1.26-.28-.74,0-1.33.15-1.78.44-.45.29-.68.68-.68,1.16l-3.02-.22c0-.77.22-1.44.65-2.04.44-.59,1.05-1.05,1.84-1.39.79-.33,1.69-.5,2.69-.5s1.92.18,2.69.53c.77.35,1.37.85,1.79,1.5.42.65.63,1.4.63,2.25v7.34h-3.04v-3.18l.45-.88c0,.87-.17,1.64-.52,2.31-.35.67-.83,1.19-1.45,1.55-.62.37-1.35.55-2.17.55-.75,0-1.42-.15-2-.44ZM49.79,108.48c.43-.33.77-.79,1-1.39.23-.59.35-1.29.35-2.08v-1.01l.34.45c0,.51-.26.94-.79,1.3-.53.35-1.22.58-2.07.69-.66.09-1.15.25-1.46.47-.32.22-.47.53-.47.9s.15.65.44.86c.29.21.67.31,1.14.31.59,0,1.1-.16,1.53-.5Z"/>
        <path class="cls-1" d="M55.42,99.9h3.04v11.26h-3.04v-11.26ZM62.32,102.74c-.32-.43-.78-.65-1.36-.65-.75,0-1.35.33-1.81.99s-.69,1.53-.69,2.61l-.59-1.13c0-.99.18-1.87.53-2.62.35-.76.85-1.35,1.49-1.77s1.38-.63,2.22-.63c.8,0,1.47.19,2.03.57.56.38.98.94,1.27,1.67s.44,1.61.44,2.65v6.73h-3.04v-6.6c0-.78-.16-1.39-.48-1.82Z"/>
        <path class="cls-1" d="M69.17,110.76c-.74-.51-1.32-1.22-1.74-2.13-.42-.91-.63-1.95-.63-3.12s.21-2.21.62-3.11c.41-.9.99-1.6,1.72-2.11.74-.5,1.58-.75,2.52-.75.86,0,1.62.21,2.29.64.67.43,1.19,1.02,1.55,1.79.37.77.55,1.65.55,2.66v1.8c0,1.01-.18,1.9-.54,2.67-.36.77-.87,1.37-1.53,1.79s-1.42.63-2.27.63c-.95,0-1.79-.26-2.53-.77ZM74.16,108.55c.42-.29.75-.69.98-1.22.23-.53.35-1.13.35-1.8s-.12-1.28-.35-1.8-.56-.93-.98-1.22-.91-.43-1.46-.43-1.04.14-1.46.43c-.42.29-.75.69-.98,1.22-.23.53-.35,1.13-.35,1.8s.12,1.28.35,1.8c.23.53.56.93.98,1.22.42.29.91.43,1.46.43s1.04-.14,1.46-.43ZM75.51,95.4h3.04v15.76h-3.04v-15.76Z"/>
        <path class="cls-1" d="M82.51,110.77c-.92-.5-1.63-1.21-2.14-2.12-.51-.91-.77-1.96-.77-3.14s.24-2.17.72-3.07c.48-.91,1.15-1.62,2.02-2.13.86-.51,1.84-.77,2.92-.77s2.07.26,2.92.77c.85.51,1.51,1.22,1.99,2.14.48.92.72,1.96.72,3.13v.86h-8.15c0,.5.12.93.35,1.32.23.38.56.68.98.9.42.22.9.33,1.44.33.57,0,1.06-.12,1.46-.36.41-.24.69-.57.86-.99l3.06.22c-.17,1.11-.72,2-1.67,2.67-.95.67-2.12,1-3.54,1-1.2,0-2.26-.25-3.18-.75ZM87.45,103.11c-.21-.32-.5-.57-.88-.75-.38-.18-.81-.27-1.31-.27s-.93.09-1.32.27-.68.43-.89.75-.31.69-.31,1.11h5.02c0-.42-.11-.79-.32-1.11Z"/>
        <path class="cls-1" d="M91.93,99.9h3.04v4.19l-.41,1.55c0-1.23.11-2.27.34-3.13.22-.86.56-1.51.99-1.95.44-.44.96-.66,1.58-.66h2.07v2.54h-1.85c-.68,0-1.21.13-1.61.39s-.68.68-.86,1.26c-.17.58-.26,1.37-.26,2.38v4.68h-3.04v-11.26Z"/>
        <path class="cls-1" d="M103.68,95.4h3.36l7.48,11.87-.54.16v-12.03h3.13v15.76h-3.36l-7.48-11.87.54-.16v12.03h-3.13v-15.76Z"/>
        <path class="cls-1" d="M118.95,95.4h3.6v2.93h-3.6v-2.93ZM119.22,99.9h3.04v11.26h-3.04v-11.26Z"/>
        <path class="cls-1" d="M126.03,110.77c-.89-.5-1.59-1.21-2.08-2.11-.5-.9-.74-1.94-.74-3.11s.25-2.21.74-3.12c.5-.91,1.19-1.62,2.07-2.13.89-.51,1.9-.77,3.04-.77.99,0,1.89.19,2.7.57.81.38,1.47.92,1.97,1.62.5.7.81,1.51.91,2.42l-3.29.23c-.15-.72-.43-1.28-.83-1.69-.41-.41-.91-.61-1.51-.61-.5,0-.93.14-1.31.43-.38.29-.66.69-.87,1.22s-.3,1.14-.3,1.85c0,1.05.22,1.88.66,2.49.44.61,1.05.91,1.81.91.6,0,1.11-.19,1.52-.57s.69-.91.82-1.59l3.29.22c-.09.89-.38,1.67-.88,2.34-.5.68-1.14,1.2-1.95,1.58-.8.38-1.71.56-2.71.56-1.16,0-2.18-.25-3.07-.75Z"/>
        <path class="cls-1" d="M135.57,95.4h3.04v15.76h-3.04v-15.76ZM142.47,102.74c-.32-.43-.78-.65-1.36-.65-.75,0-1.35.33-1.81.99-.46.66-.69,1.53-.69,2.61l-.59-1.13c0-.99.18-1.87.53-2.62.35-.76.85-1.35,1.49-1.77s1.38-.63,2.22-.63c.8,0,1.47.19,2.03.57.56.38.98.94,1.27,1.67s.44,1.61.44,2.65v6.73h-3.04v-6.6c0-.78-.16-1.39-.48-1.82Z"/>
        <path class="cls-1" d="M149.79,110.76c-.89-.51-1.59-1.22-2.09-2.13-.5-.91-.75-1.94-.75-3.1s.25-2.19.75-3.1c.5-.91,1.2-1.62,2.09-2.13.89-.51,1.9-.77,3.03-.77s2.13.26,3.02.77c.89.51,1.58,1.22,2.08,2.13.5.91.75,1.94.75,3.1s-.25,2.19-.75,3.1c-.5.91-1.2,1.62-2.08,2.13-.89.51-1.89.77-3.02.77s-2.14-.26-3.03-.77ZM154.29,108.55c.42-.29.74-.69.97-1.21.23-.52.34-1.12.34-1.81s-.11-1.29-.34-1.81c-.22-.52-.55-.92-.97-1.2-.42-.29-.91-.43-1.46-.43s-1.04.14-1.46.43c-.42.29-.74.69-.97,1.2-.22.52-.34,1.12-.34,1.81s.11,1.3.34,1.81c.23.52.55.92.97,1.21.42.29.91.43,1.46.43s1.04-.14,1.46-.43Z"/>
        <path class="cls-1" d="M159.73,95.17h3.04v15.99h-3.04v-15.99Z"/>
        <path class="cls-1" d="M166.59,111c-.85-.35-1.51-.83-1.98-1.44-.47-.62-.72-1.33-.75-2.14l3-.23c.03.36.15.68.37.95.22.27.52.48.91.62.39.14.86.21,1.4.21.65,0,1.15-.1,1.52-.31.37-.21.55-.49.55-.83,0-.27-.11-.48-.33-.64s-.5-.27-.83-.35c-.34-.07-.81-.16-1.43-.27-.96-.15-1.75-.32-2.35-.52-.61-.2-1.13-.52-1.58-.98-.44-.46-.66-1.11-.66-1.95,0-.77.2-1.42.59-1.96.39-.54.95-.95,1.67-1.22s1.56-.41,2.52-.41,1.88.15,2.63.45c.75.3,1.33.72,1.75,1.26.41.54.63,1.16.66,1.87l-3.02.23c-.04-.41-.23-.72-.56-.93-.33-.22-.8-.33-1.42-.33-.56,0-.98.08-1.27.25s-.44.39-.44.68c0,.24.1.43.32.56.21.14.47.24.79.32s.77.17,1.35.27c.98.17,1.78.35,2.4.55.62.2,1.17.54,1.63,1.02.47.48.7,1.14.7,1.98,0,.78-.21,1.46-.62,2.03-.41.57-1.01,1.01-1.78,1.32-.77.31-1.69.46-2.76.46-1.13,0-2.11-.17-2.96-.52Z"/>
        <path class="cls-1" d="M178.39,110.76c-.89-.51-1.59-1.22-2.09-2.13-.5-.91-.75-1.94-.75-3.1s.25-2.19.75-3.1c.5-.91,1.2-1.62,2.09-2.13.89-.51,1.9-.77,3.03-.77s2.13.26,3.02.77c.89.51,1.58,1.22,2.08,2.13.5.91.75,1.94.75,3.1s-.25,2.19-.75,3.1c-.5.91-1.2,1.62-2.08,2.13-.89.51-1.89.77-3.02.77s-2.14-.26-3.03-.77ZM182.89,108.55c.42-.29.74-.69.97-1.21.23-.52.34-1.12.34-1.81s-.11-1.29-.34-1.81c-.22-.52-.55-.92-.97-1.2-.42-.29-.91-.43-1.46-.43s-1.04.14-1.46.43c-.42.29-.74.69-.97,1.2-.22.52-.34,1.12-.34,1.81s.11,1.3.34,1.81c.23.52.55.92.97,1.21.42.29.91.43,1.46.43s1.04-.14,1.46-.43Z"/>
        <path class="cls-1" d="M188.31,99.9h3.04v11.26h-3.04v-11.26ZM195.21,102.74c-.32-.43-.78-.65-1.36-.65-.75,0-1.35.33-1.81.99-.46.66-.69,1.53-.69,2.61l-.59-1.13c0-.99.18-1.87.53-2.62.35-.76.85-1.35,1.49-1.77s1.38-.63,2.22-.63c.8,0,1.47.19,2.03.57.56.38.98.94,1.27,1.67.29.73.44,1.61.44,2.65v6.73h-3.04v-6.6c0-.78-.16-1.39-.48-1.82Z"/>
      </g>
    </g>
  </g>
</svg>